<svg preserveAspectRatio="none" width="100%" height="100%" overflow="visible" style="display: block;" viewBox="0 0 18.3333 18.3333" fill="none" xmlns="http://www.w3.org/2000/svg">
<path id="Icon" d="M0.833333 9.16667H17.5M0.833333 9.16667C0.833333 13.769 4.56429 17.5 9.16667 17.5M0.833333 9.16667C0.833333 4.56429 4.56429 0.833333 9.16667 0.833333M17.5 9.16667C17.5 13.769 13.769 17.5 9.16667 17.5M17.5 9.16667C17.5 4.56429 13.769 0.833333 9.16667 0.833333M9.16667 0.833333C11.2511 3.11529 12.4356 6.07669 12.5 9.16667C12.4356 12.2566 11.2511 15.218 9.16667 17.5M9.16667 0.833333C7.08227 3.11529 5.89771 6.07669 5.83333 9.16667C5.89771 12.2566 7.08227 15.218 9.16667 17.5" stroke="var(--stroke-0, #396E1E)" stroke-width="1.66667" stroke-linecap="round" stroke-linejoin="round"/>
</svg>
