<svg preserveAspectRatio="none" width="100%" height="100%" overflow="visible" style="display: block;" viewBox="0 0 17.9891 17.9961" fill="none" xmlns="http://www.w3.org/2000/svg">
<g id="Group">
<path id="Vector" d="M8.99981 1.62067C11.4044 1.62067 11.6892 1.63121 12.6349 1.6734C13.5138 1.71207 13.9884 1.85973 14.3048 1.98277C14.7231 2.14448 15.0255 2.34136 15.3383 2.65424C15.6547 2.97064 15.8481 3.26946 16.0098 3.68781C16.1329 4.00421 16.2805 4.48232 16.3192 5.3577C16.3614 6.30689 16.3719 6.59165 16.3719 8.99277C16.3719 11.3974 16.3614 11.6822 16.3192 12.6279C16.2805 13.5067 16.1329 13.9813 16.0098 14.2977C15.8481 14.7161 15.6512 15.0184 15.3383 15.3313C15.0219 15.6477 14.7231 15.8411 14.3048 16.0028C13.9884 16.1258 13.5103 16.2735 12.6349 16.3121C11.6857 16.3543 11.4009 16.3649 8.99981 16.3649C6.59518 16.3649 6.31042 16.3543 5.36473 16.3121C4.48585 16.2735 4.01125 16.1258 3.69485 16.0028C3.2765 15.8411 2.97416 15.6442 2.66128 15.3313C2.34488 15.0149 2.15152 14.7161 1.98981 14.2977C1.86676 13.9813 1.71911 13.5032 1.68044 12.6279C1.63825 11.6787 1.62771 11.3939 1.62771 8.99277C1.62771 6.58814 1.63825 6.30338 1.68044 5.3577C1.71911 4.47881 1.86676 4.00421 1.98981 3.68781C2.15152 3.26946 2.34839 2.96712 2.66128 2.65424C2.97768 2.33784 3.2765 2.14448 3.69485 1.98277C4.01125 1.85973 4.48936 1.71207 5.36473 1.6734C6.31042 1.63121 6.59518 1.62067 8.99981 1.62067ZM8.99981 0C6.55651 0 6.25065 0.0105466 5.29091 0.0527332C4.33468 0.0949198 3.67727 0.249604 3.10775 0.471083C2.51362 0.70311 2.0109 1.00896 1.51169 1.51169C1.00897 2.01089 0.703116 2.51362 0.47109 3.10423C0.24961 3.67726 0.094926 4.33116 0.0527394 5.28739C0.0105528 6.25065 6.1226e-06 6.5565 6.1226e-06 8.9998C6.1226e-06 11.4431 0.0105528 11.749 0.0527394 12.7087C0.094926 13.6649 0.24961 14.3223 0.47109 14.8919C0.703116 15.486 1.00897 15.9887 1.51169 16.4879C2.0109 16.9871 2.51362 17.2965 3.10424 17.525C3.67727 17.7465 4.33116 17.9012 5.28739 17.9434C6.24714 17.9855 6.55299 17.9961 8.9963 17.9961C11.4396 17.9961 11.7455 17.9855 12.7052 17.9434C13.6614 17.9012 14.3188 17.7465 14.8884 17.525C15.479 17.2965 15.9817 16.9871 16.4809 16.4879C16.9801 15.9887 17.2895 15.486 17.518 14.8954C17.7395 14.3223 17.8942 13.6685 17.9363 12.7122C17.9785 11.7525 17.9891 11.4466 17.9891 9.00332C17.9891 6.56001 17.9785 6.25416 17.9363 5.29442C17.8942 4.33819 17.7395 3.68078 17.518 3.11126C17.2965 2.51362 16.9907 2.01089 16.4879 1.51169C15.9887 1.01248 15.486 0.70311 14.8954 0.474599C14.3224 0.253119 13.6685 0.0984354 12.7122 0.0562488C11.749 0.0105467 11.4431 0 8.99981 0Z" fill="var(--fill-0, #396E1E)"/>
<path id="Vector_2" d="M8.99981 4.37686C6.44752 4.37686 4.37686 6.44752 4.37686 8.9998C4.37686 11.5521 6.44752 13.6228 8.99981 13.6228C11.5521 13.6228 13.6228 11.5521 13.6228 8.9998C13.6228 6.44752 11.5521 4.37686 8.99981 4.37686ZM8.99981 11.9986C7.34399 11.9986 6.00105 10.6556 6.00105 8.9998C6.00105 7.34398 7.34399 6.00104 8.99981 6.00104C10.6556 6.00104 11.9986 7.34398 11.9986 8.9998C11.9986 10.6556 10.6556 11.9986 8.99981 11.9986Z" fill="var(--fill-0, #396E1E)"/>
<path id="Vector_3" d="M14.8848 4.194C14.8848 4.79164 14.3997 5.27327 13.8056 5.27327C13.2079 5.27327 12.7263 4.78812 12.7263 4.194C12.7263 3.59635 13.2114 3.11472 13.8056 3.11472C14.3997 3.11472 14.8848 3.59987 14.8848 4.194Z" fill="var(--fill-0, #396E1E)"/>
</g>
</svg>
