<svg preserveAspectRatio="none" width="100%" height="100%" overflow="visible" style="display: block;" viewBox="0 0 20 20" fill="none" xmlns="http://www.w3.org/2000/svg">
<g id="XLogo">
<path id="Vector" d="M16.7969 17.1758C16.7431 17.2738 16.6639 17.3556 16.5677 17.4126C16.4716 17.4696 16.3618 17.4998 16.25 17.5H12.5C12.3948 17.5 12.2913 17.4734 12.1991 17.4227C12.107 17.3721 12.0291 17.2989 11.9727 17.2102L8.80937 12.2391L4.2125 17.2953C4.10044 17.4157 3.94545 17.487 3.78113 17.4939C3.61681 17.5008 3.45641 17.4426 3.3347 17.332C3.21299 17.2214 3.13978 17.0673 3.13094 16.903C3.12211 16.7388 3.17836 16.5777 3.2875 16.4547L8.11328 11.1422L3.22266 3.46094C3.16242 3.36644 3.1287 3.25749 3.12503 3.14548C3.12136 3.03348 3.14787 2.92255 3.20178 2.82431C3.25569 2.72607 3.33503 2.64413 3.43147 2.58708C3.52792 2.53002 3.63794 2.49995 3.75 2.5H7.5C7.60519 2.50003 7.70867 2.52661 7.80085 2.57728C7.89303 2.62795 7.97094 2.70106 8.02734 2.78984L11.1906 7.76094L15.7875 2.70469C15.8996 2.58431 16.0545 2.51296 16.2189 2.50609C16.3832 2.49923 16.5436 2.5574 16.6653 2.66801C16.787 2.77862 16.8602 2.93275 16.8691 3.09697C16.8779 3.2612 16.8216 3.42228 16.7125 3.54531L11.8867 8.85391L16.7773 16.5398C16.8372 16.6344 16.8706 16.7433 16.8741 16.8551C16.8775 16.967 16.8509 17.0777 16.7969 17.1758Z" fill="var(--fill-0, #396E1E)"/>
</g>
</svg>
