<svg preserveAspectRatio="none" width="100%" height="100%" overflow="visible" style="display: block;" viewBox="0 0 20 20" fill="none" xmlns="http://www.w3.org/2000/svg">
<g id="LN Logo">
<path id="Rectangle 1" fill-rule="evenodd" clip-rule="evenodd" d="M5.0322 19V6.97047H1.29959V19H5.0322ZM1 3.16571C1 4.36177 1.96753 5.33142 3.16589 5.33142C4.35935 5.33142 5.32688 4.35685 5.32688 3.16571C5.32688 1.96965 4.35935 1 3.16589 1C1.96753 1 1 1.96965 1 3.16571ZM15.2723 19H19V12.3995C19 9.16079 18.3026 6.67022 14.5258 6.67022C12.7135 6.67022 11.4955 7.6694 10.9995 8.61444H10.9503V6.97047H7.3749V19H11.0977V13.0541C11.0977 11.484 11.3924 9.96308 13.3323 9.96308C15.2477 9.96308 15.2723 11.7596 15.2723 13.1526V19Z" fill="var(--fill-0, #396E1E)"/>
</g>
</svg>
